<svg width="368" height="266" viewBox="0 0 368 266" fill="none" xmlns="http://www.w3.org/2000/svg">
<g clip-path="url(#clip0_3934_41804)">
<path d="M-23 6.79591C-23 3.4822 -20.3137 0.795898 -17 0.795898H385C388.314 0.795898 391 3.48219 391 6.7959V259.796C391 263.11 388.314 265.796 385 265.796H-17C-20.3137 265.796 -23 263.11 -23 259.796V6.79591Z" fill="#CCDAFF"/>
<mask id="mask0_3934_41804" style="mask-type:luminance" maskUnits="userSpaceOnUse" x="78" y="28" width="211" height="211">
<path d="M184 238.796C241.99 238.796 289 191.786 289 133.796C289 75.806 241.99 28.7959 184 28.7959C126.009 28.7959 78.999 75.806 78.999 133.796C78.999 191.786 126.009 238.796 184 238.796Z" fill="white"/>
</mask>
<g mask="url(#mask0_3934_41804)">
<path d="M184.005 80.6173C135.979 80.6173 96.9004 41.5445 96.9004 -6.48711C96.9004 -54.5187 135.973 -93.5859 184.005 -93.5859C232.037 -93.5859 271.11 -54.5132 271.11 -6.48157C271.11 41.5501 232.037 80.6228 184.005 80.6228V80.6173ZM184.005 -86.2373C140.03 -86.2373 104.255 -50.4626 104.255 -6.48711C104.255 37.4884 140.03 73.2631 184.005 73.2631C227.981 73.2631 263.756 37.4884 263.756 -6.48711C263.756 -50.4626 227.976 -86.2373 184.005 -86.2373Z" fill="#7FA1F8"/>
<path d="M184.005 103.144C123.555 103.144 74.3779 53.9673 74.3779 -6.48166C74.3779 -66.9307 123.555 -116.113 184.005 -116.113C244.454 -116.113 293.632 -66.9362 293.632 -6.48719C293.632 53.9618 244.454 103.139 184.005 103.139V103.144ZM184.005 -106.861C128.657 -106.861 83.6302 -61.8342 83.6302 -6.48719C83.6302 48.8598 128.657 93.8867 184.005 93.8867C239.352 93.8867 284.379 48.8598 284.379 -6.48719C284.379 -61.8342 239.347 -106.861 184.005 -106.861Z" fill="#7FA1F8"/>
<path d="M61.6854 314.379C1.23601 314.379 -47.9414 265.202 -47.9414 204.753C-47.9414 144.304 1.23601 95.1265 61.6854 95.1265C122.135 95.1265 171.312 144.304 171.312 204.753C171.312 265.202 122.135 314.379 61.6854 314.379ZM61.6854 104.379C6.33802 104.379 -38.6892 149.406 -38.6892 204.753C-38.6892 260.1 6.33802 305.126 61.6854 305.126C117.033 305.126 162.06 260.1 162.06 204.753C162.06 149.406 117.033 104.379 61.6854 104.379Z" fill="#7FA1F8"/>
<path d="M61.686 291.857C13.6596 291.857 -25.4189 252.784 -25.4189 204.752C-25.4189 156.721 13.654 117.648 61.686 117.648C109.718 117.648 148.791 156.721 148.791 204.752C148.791 252.784 109.718 291.857 61.686 291.857ZM61.686 125.002C17.7102 125.002 -18.0647 160.777 -18.0647 204.752C-18.0647 248.728 17.7102 284.503 61.686 284.503C105.662 284.503 141.437 248.728 141.437 204.752C141.437 160.777 105.662 125.002 61.686 125.002Z" fill="#7FA1F8"/>
<path d="M306.323 314.379C245.874 314.379 196.696 265.202 196.696 204.753C196.696 144.304 245.874 95.1265 306.323 95.1265C366.773 95.1265 415.95 144.304 415.95 204.753C415.95 265.202 366.773 314.379 306.323 314.379ZM306.323 104.379C250.976 104.379 205.949 149.406 205.949 204.753C205.949 260.1 250.976 305.126 306.323 305.126C361.671 305.126 406.698 260.1 406.698 204.753C406.698 149.406 361.671 104.379 306.323 104.379Z" fill="#7FA1F8"/>
<path d="M306.322 291.857C258.295 291.857 219.217 252.784 219.217 204.753C219.217 156.721 258.29 117.648 306.322 117.648C354.354 117.648 393.427 156.721 393.427 204.753C393.427 252.784 354.354 291.857 306.322 291.857ZM306.322 125.003C262.346 125.003 226.571 160.777 226.571 204.753C226.571 248.728 262.346 284.503 306.322 284.503C350.298 284.503 386.072 248.728 386.072 204.753C386.072 160.777 350.298 125.003 306.322 125.003Z" fill="#7FA1F8"/>
<path d="M306.323 314.379C245.874 314.379 196.696 265.202 196.696 204.753C196.696 144.304 245.874 95.1265 306.323 95.1265C366.773 95.1265 415.95 144.304 415.95 204.753C415.95 265.202 366.773 314.379 306.323 314.379ZM306.323 104.379C250.976 104.379 205.949 149.406 205.949 204.753C205.949 260.1 250.976 305.126 306.323 305.126C361.671 305.126 406.698 260.1 406.698 204.753C406.698 149.406 361.671 104.379 306.323 104.379Z" fill="#7FA1F8"/>
<path d="M305.266 150.158C297.85 150.158 290.386 149.201 283.02 147.27C260.515 141.365 241.656 127.05 229.92 106.963C218.183 86.876 214.968 63.4191 220.872 40.9139C226.776 18.4088 241.092 -0.449711 261.179 -12.1865C281.266 -23.9232 304.723 -27.1382 327.229 -21.2339C349.734 -15.3295 368.592 -1.01413 380.329 19.0728C392.066 39.1598 395.281 62.6167 389.377 85.1218C383.472 107.627 369.157 126.485 349.07 138.222C335.557 146.119 320.516 150.158 305.266 150.158ZM304.989 -16.7683C291.028 -16.7683 277.26 -13.0718 264.887 -5.83943C226.92 16.3448 214.082 65.2839 236.267 103.255C247.013 121.649 264.283 134.753 284.885 140.159C305.487 145.565 326.968 142.621 345.357 131.875C363.751 121.129 376.854 103.859 382.261 83.257C387.667 62.6499 384.723 41.174 373.977 22.7859C363.23 4.39218 345.96 -8.71136 325.358 -14.1177C318.618 -15.8884 311.779 -16.7628 304.989 -16.7628V-16.7683Z" fill="#344EAD"/>
<path d="M305.304 172.691C295.969 172.691 286.572 171.49 277.304 169.056C248.977 161.624 225.243 143.607 210.468 118.329C179.967 66.1362 197.619 -1.13571 249.807 -31.6314C302 -62.1325 369.273 -44.4804 399.768 7.70698C414.543 32.99 418.588 62.5117 411.157 90.8382C403.725 119.159 385.707 142.898 360.43 157.673C343.425 167.611 324.494 172.697 305.304 172.697V172.691ZM304.955 -37.3974C287.386 -37.3974 270.054 -32.7436 254.483 -23.6408C206.7 4.28168 190.542 65.8762 218.464 113.664C231.994 136.811 253.725 153.307 279.655 160.108C305.591 166.914 332.618 163.207 355.77 149.682C378.918 136.153 395.413 114.422 402.214 88.492C409.015 62.5615 405.313 35.5299 391.789 12.3773C378.259 -10.7697 356.529 -27.2654 330.598 -34.0661C322.115 -36.2906 313.505 -37.3918 304.961 -37.3918L304.955 -37.3974Z" fill="#344EAD"/>
<path d="M61.2092 173.665C51.874 173.665 42.4779 172.464 33.209 170.03C4.88236 162.598 -18.8514 144.586 -33.6262 119.303C-48.401 94.0201 -52.4461 64.4984 -45.0144 36.1719C-37.5827 7.84539 -19.5708 -15.8882 5.7124 -30.6629C30.9956 -45.4376 60.5175 -49.4827 88.8442 -42.0511C117.171 -34.6194 140.905 -16.6076 155.679 8.67543C170.454 33.9584 174.499 63.4802 167.068 91.8067C159.636 120.128 141.618 143.867 116.341 158.641C99.336 168.58 80.4054 173.665 61.2148 173.665H61.2092ZM60.8551 -36.4289C43.2802 -36.4289 25.9544 -31.7752 10.3773 -22.6724C-12.7699 -9.14275 -29.2657 12.5877 -36.0665 38.5181C-42.8674 64.4486 -39.1654 91.4802 -25.6412 114.633C-12.1114 137.78 9.61915 154.275 35.5498 161.076C61.4859 167.877 88.5122 164.175 111.665 150.651C134.812 137.121 151.308 115.391 158.109 89.4604C164.91 63.53 161.208 36.4984 147.683 13.3458C134.154 -9.80125 112.423 -26.2969 86.4924 -33.0977C78.0038 -35.3222 69.399 -36.4234 60.8551 -36.4234V-36.4289Z" fill="#344EAD"/>
<path d="M61.1715 151.077C31.2013 151.077 2.00031 135.627 -14.18 107.937C-25.9169 87.8501 -29.1319 64.3932 -23.2275 41.8881C-17.3231 19.3829 -3.00763 0.52442 17.0795 -11.2123C37.1666 -22.9491 60.6236 -26.1641 83.1289 -20.2598C105.634 -14.3554 124.493 -0.0400105 136.23 20.0469C147.967 40.1339 151.182 63.5908 145.277 86.096C139.373 108.601 125.057 127.46 104.97 139.196C91.1914 147.248 76.0846 151.077 61.1715 151.077ZM60.8948 -15.7942C46.9334 -15.7942 33.1657 -12.0977 20.7925 -4.86531C2.39873 5.88093 -10.7049 23.1513 -16.1113 43.7529C-21.5176 64.36 -18.5737 85.8359 -7.82742 104.224C14.3569 142.19 63.2964 155.028 101.268 132.844C119.662 122.098 132.766 104.827 138.172 84.2256C143.578 63.6185 140.634 42.1426 129.888 23.7545C119.142 5.36078 101.871 -7.74277 81.2696 -13.1491C74.5297 -14.9198 67.6901 -15.7942 60.9003 -15.7942H60.8948Z" fill="#344EAD"/>
<path d="M184.638 384.877C175.303 384.877 165.907 383.676 156.638 381.242C128.311 373.81 104.577 355.793 89.8025 330.515C75.0277 305.232 70.9826 275.71 78.4143 247.389C85.846 219.063 103.863 195.329 129.141 180.555C181.329 150.053 248.607 167.706 279.103 219.893C293.877 245.176 297.923 274.698 290.491 303.024C283.059 331.351 265.047 355.084 239.764 369.859C222.754 379.797 203.829 384.883 184.638 384.883V384.877ZM184.289 174.85C167.102 174.85 149.693 179.26 133.817 188.54C110.67 202.069 94.1741 223.8 87.3732 249.73C80.5724 275.666 84.2744 302.692 97.7986 325.845C111.328 348.992 133.059 365.487 158.99 372.288C184.92 379.089 211.952 375.387 235.105 361.863C258.252 348.333 274.748 326.603 281.548 300.672C288.349 274.742 284.647 247.71 271.123 224.558C252.48 192.651 218.825 174.85 184.295 174.85H184.289Z" fill="#344EAD"/>
<path d="M184.599 362.345C177.178 362.345 169.719 361.388 162.354 359.456C139.848 353.552 120.99 339.237 109.253 319.15C85.0211 277.681 99.0433 224.232 140.512 200C181.976 175.769 235.431 189.791 259.663 231.26C271.399 251.347 274.614 274.804 268.71 297.309C262.806 319.814 248.49 338.672 228.403 350.409C214.89 358.305 199.85 362.345 184.599 362.345ZM184.322 195.474C170.665 195.474 156.837 198.977 144.22 206.353C125.826 217.099 112.722 234.37 107.316 254.971C101.91 275.578 104.854 297.054 115.6 315.442C126.346 333.836 143.617 346.939 164.218 352.346C184.826 357.752 206.302 354.808 224.69 344.062C243.084 333.316 256.187 316.045 261.594 295.444C267 274.837 264.056 253.361 253.31 234.973C238.496 209.623 211.758 195.474 184.322 195.474Z" fill="#344EAD"/>
<path d="M184.638 384.877C175.303 384.877 165.907 383.676 156.638 381.242C128.311 373.81 104.577 355.793 89.8025 330.515C75.0277 305.232 70.9826 275.71 78.4143 247.389C85.846 219.063 103.863 195.329 129.141 180.555C181.329 150.053 248.607 167.706 279.103 219.893C293.877 245.176 297.923 274.698 290.491 303.024C283.059 331.351 265.047 355.084 239.764 369.859C222.754 379.797 203.829 384.883 184.638 384.883V384.877ZM184.289 174.85C167.102 174.85 149.693 179.26 133.817 188.54C110.67 202.069 94.1741 223.8 87.3732 249.73C80.5724 275.666 84.2744 302.692 97.7986 325.845C111.328 348.992 133.059 365.487 158.99 372.288C184.92 379.089 211.952 375.387 235.105 361.863C258.252 348.333 274.748 326.603 281.548 300.672C288.349 274.742 284.647 247.71 271.123 224.558C252.48 192.651 218.825 174.85 184.295 174.85H184.289Z" fill="#344EAD"/>
<mask id="mask1_3934_41804" style="mask-type:luminance" maskUnits="userSpaceOnUse" x="154" y="165" width="15" height="15">
<path d="M166.054 166.887L164.488 165.99C161.522 166.533 158.418 167.241 155.258 168.099L154.317 169.947C155.363 172.725 156.309 175.641 157.128 178.618L158.844 179.597C161.727 178.823 164.732 178.17 167.775 177.655L168.893 175.912C168.041 172.752 167.089 169.72 166.06 166.892L166.054 166.887Z" fill="white"/>
</mask>
<g mask="url(#mask1_3934_41804)">
<path d="M61.2102 173.665C51.875 173.665 42.4788 172.464 33.21 170.03C4.88334 162.598 -18.8504 144.586 -33.6252 119.303C-48.4 94.0201 -52.4451 64.4984 -45.0134 36.1719C-37.5818 7.84539 -19.5698 -15.8882 5.71338 -30.6629C30.9966 -45.4376 60.5185 -49.4827 88.8452 -42.0511C117.172 -34.6194 140.906 -16.6076 155.68 8.67543C170.455 33.9584 174.5 63.4802 167.069 91.8067C159.637 120.128 141.619 143.867 116.342 158.641C99.3369 168.58 80.4064 173.665 61.2157 173.665H61.2102ZM60.856 -36.4289C43.2812 -36.4289 25.9554 -31.7752 10.3782 -22.6724C-12.769 -9.14275 -29.2647 12.5877 -36.0656 38.5181C-42.8664 64.4486 -39.1644 91.4802 -25.6402 114.633C-12.1105 137.78 9.62013 154.275 35.5507 161.076C61.4869 167.877 88.5131 164.175 111.666 150.651C134.813 137.121 151.309 115.391 158.11 89.4604C164.91 63.53 161.208 36.4984 147.684 13.3458C134.155 -9.80125 112.424 -26.2969 86.4934 -33.0977C78.0048 -35.3222 69.4 -36.4234 60.856 -36.4234V-36.4289Z" fill="#344EAD"/>
<path d="M184.638 384.878C175.303 384.878 165.907 383.677 156.638 381.242C128.311 373.81 104.577 355.793 89.8025 330.516C75.0277 305.233 70.9826 275.711 78.4143 247.39C85.846 219.063 103.863 195.33 129.141 180.555C181.329 150.054 248.607 167.706 279.103 219.894C293.877 245.177 297.923 274.698 290.491 303.025C283.059 331.351 265.047 355.085 239.764 369.859C222.754 379.798 203.829 384.883 184.638 384.883V384.878ZM184.289 174.85C167.102 174.85 149.693 179.26 133.817 188.54C110.67 202.07 94.1741 223.8 87.3732 249.731C80.5724 275.667 84.2744 302.693 97.7986 325.845C111.328 348.992 133.059 365.488 158.99 372.289C184.92 379.09 211.952 375.388 235.105 361.863C258.252 348.334 274.748 326.603 281.548 300.673C288.349 274.743 284.647 247.711 271.123 224.558C252.48 192.652 218.825 174.85 184.295 174.85H184.289Z" fill="#344EAD"/>
<path d="M184.6 362.345C177.179 362.345 169.72 361.387 162.355 359.456C139.849 353.552 120.991 339.236 109.254 319.149C85.0221 277.681 99.0443 224.232 140.513 200C181.977 175.768 235.432 189.79 259.664 231.259C271.4 251.346 274.615 274.803 268.711 297.308C262.807 319.813 248.491 338.672 228.404 350.409C214.891 358.305 199.851 362.345 184.6 362.345ZM184.323 195.473C170.666 195.473 156.838 198.976 144.221 206.352C125.827 217.099 112.723 234.369 107.317 254.971C101.911 275.578 104.855 297.054 115.601 315.442C126.347 333.835 143.618 346.939 164.219 352.345C184.827 357.752 206.303 354.808 224.691 344.062C243.085 333.315 256.188 316.045 261.595 295.443C267.001 274.836 264.057 253.36 253.311 234.972C238.497 209.623 211.759 195.473 184.323 195.473Z" fill="#344EAD"/>
<path d="M184.638 384.878C175.303 384.878 165.907 383.677 156.638 381.242C128.311 373.81 104.577 355.793 89.8025 330.516C75.0277 305.233 70.9826 275.711 78.4143 247.39C85.846 219.063 103.863 195.33 129.141 180.555C181.329 150.054 248.607 167.706 279.103 219.894C293.877 245.177 297.923 274.698 290.491 303.025C283.059 331.351 265.047 355.085 239.764 369.859C222.754 379.798 203.829 384.883 184.638 384.883V384.878ZM184.289 174.85C167.102 174.85 149.693 179.26 133.817 188.54C110.67 202.07 94.1741 223.8 87.3732 249.731C80.5724 275.667 84.2744 302.693 97.7986 325.845C111.328 348.992 133.059 365.488 158.99 372.289C184.92 379.09 211.952 375.388 235.105 361.863C258.252 348.334 274.748 326.603 281.548 300.673C288.349 274.743 284.647 247.711 271.123 224.558C252.48 192.652 218.825 174.85 184.295 174.85H184.289Z" fill="#344EAD"/>
<path d="M61.6864 314.38C1.23699 314.38 -47.9404 265.203 -47.9404 204.754C-47.9404 144.305 1.23699 95.1279 61.6864 95.1279C122.136 95.1279 171.313 144.305 171.313 204.754C171.313 265.203 122.136 314.38 61.6864 314.38ZM61.6864 104.38C6.339 104.38 -38.6882 149.407 -38.6882 204.754C-38.6882 260.101 6.339 305.128 61.6864 305.128C117.034 305.128 162.061 260.101 162.061 204.754C162.061 149.407 117.034 104.38 61.6864 104.38Z" fill="#7FA1F8"/>
</g>
<mask id="mask2_3934_41804" style="mask-type:luminance" maskUnits="userSpaceOnUse" x="195" y="187" width="14" height="13">
<path d="M207.264 189.74C204.259 188.938 201.155 188.285 198.034 187.798L196.429 188.982C196.091 191.323 195.837 193.746 195.638 196.386L196.811 197.875C199.777 198.35 202.793 199.02 205.775 199.867L207.552 198.605C207.695 196.226 207.945 193.763 208.282 191.29L207.253 189.746L207.264 189.74Z" fill="white"/>
</mask>
<g mask="url(#mask2_3934_41804)">
<path d="M184.638 384.877C175.303 384.877 165.907 383.676 156.638 381.242C128.311 373.81 104.577 355.793 89.8025 330.515C75.0277 305.232 70.9826 275.71 78.4143 247.389C85.846 219.063 103.863 195.329 129.141 180.555C181.329 150.053 248.607 167.706 279.103 219.893C293.877 245.176 297.923 274.698 290.491 303.024C283.059 331.351 265.047 355.084 239.764 369.859C222.754 379.797 203.829 384.883 184.638 384.883V384.877ZM184.289 174.85C167.102 174.85 149.693 179.26 133.817 188.54C110.67 202.069 94.1741 223.8 87.3732 249.73C80.5724 275.666 84.2744 302.692 97.7986 325.845C111.328 348.992 133.059 365.487 158.99 372.288C184.92 379.089 211.952 375.387 235.105 361.863C258.252 348.333 274.748 326.603 281.548 300.672C288.349 274.742 284.647 247.71 271.123 224.558C252.48 192.651 218.825 174.85 184.295 174.85H184.289Z" fill="#344EAD"/>
<path d="M184.6 362.345C177.179 362.345 169.72 361.387 162.355 359.456C139.849 353.552 120.991 339.236 109.254 319.149C85.0221 277.681 99.0443 224.232 140.513 200C181.977 175.768 235.432 189.79 259.664 231.259C271.4 251.346 274.615 274.803 268.711 297.308C262.807 319.813 248.491 338.672 228.404 350.409C214.891 358.305 199.851 362.345 184.6 362.345ZM184.323 195.473C170.666 195.473 156.838 198.976 144.221 206.352C125.827 217.099 112.723 234.369 107.317 254.971C101.911 275.578 104.855 297.054 115.601 315.442C126.347 333.835 143.618 346.939 164.219 352.345C184.827 357.752 206.303 354.808 224.691 344.062C243.085 333.315 256.188 316.045 261.595 295.443C267.001 274.836 264.057 253.36 253.311 234.972C238.497 209.623 211.759 195.473 184.323 195.473Z" fill="#344EAD"/>
<path d="M184.638 384.877C175.303 384.877 165.907 383.676 156.638 381.242C128.311 373.81 104.577 355.793 89.8025 330.515C75.0277 305.232 70.9826 275.71 78.4143 247.389C85.846 219.063 103.863 195.329 129.141 180.555C181.329 150.053 248.607 167.706 279.103 219.893C293.877 245.176 297.923 274.698 290.491 303.024C283.059 331.351 265.047 355.084 239.764 369.859C222.754 379.797 203.829 384.883 184.638 384.883V384.877ZM184.289 174.85C167.102 174.85 149.693 179.26 133.817 188.54C110.67 202.069 94.1741 223.8 87.3732 249.73C80.5724 275.666 84.2744 302.692 97.7986 325.845C111.328 348.992 133.059 365.487 158.99 372.288C184.92 379.089 211.952 375.387 235.105 361.863C258.252 348.333 274.748 326.603 281.548 300.672C288.349 274.742 284.647 247.71 271.123 224.558C252.48 192.651 218.825 174.85 184.295 174.85H184.289Z" fill="#344EAD"/>
<path d="M306.324 314.38C245.875 314.38 196.697 265.203 196.697 204.754C196.697 144.305 245.875 95.1274 306.324 95.1274C366.774 95.1274 415.951 144.305 415.951 204.754C415.951 265.203 366.774 314.38 306.324 314.38ZM306.324 104.38C250.977 104.38 205.95 149.406 205.95 204.754C205.95 260.101 250.977 305.127 306.324 305.127C361.672 305.127 406.699 260.101 406.699 204.754C406.699 149.406 361.672 104.38 306.324 104.38Z" fill="#7FA1F8"/>
<path d="M306.324 314.38C245.875 314.38 196.697 265.203 196.697 204.754C196.697 144.305 245.875 95.1274 306.324 95.1274C366.774 95.1274 415.951 144.305 415.951 204.754C415.951 265.203 366.774 314.38 306.324 314.38ZM306.324 104.38C250.977 104.38 205.95 149.406 205.95 204.754C205.95 260.101 250.977 305.127 306.324 305.127C361.672 305.127 406.699 260.101 406.699 204.754C406.699 149.406 361.672 104.38 306.324 104.38Z" fill="#7FA1F8"/>
</g>
<mask id="mask3_3934_41804" style="mask-type:luminance" maskUnits="userSpaceOnUse" x="220" y="172" width="14" height="15">
<path d="M232.409 175.109C230.378 174.141 228.143 173.173 225.575 172.149L223.749 172.946C222.603 175.901 221.624 178.905 220.827 181.871L221.657 183.532C223.849 184.417 226.106 185.43 228.358 186.547L230.334 185.634C231.064 182.718 232 179.774 233.112 176.875L232.409 175.109Z" fill="white"/>
</mask>
<g mask="url(#mask3_3934_41804)">
<path d="M305.304 172.691C295.969 172.691 286.572 171.49 277.304 169.056C248.977 161.624 225.243 143.607 210.468 118.329C179.967 66.1362 197.619 -1.13571 249.807 -31.6314C302 -62.1325 369.273 -44.4804 399.768 7.70698C414.543 32.99 418.588 62.5117 411.157 90.8382C403.725 119.159 385.707 142.898 360.43 157.673C343.425 167.611 324.494 172.697 305.304 172.697V172.691ZM304.955 -37.3974C287.386 -37.3974 270.054 -32.7436 254.483 -23.6408C206.7 4.28168 190.542 65.8762 218.464 113.664C231.994 136.811 253.725 153.307 279.655 160.108C305.591 166.914 332.618 163.207 355.77 149.682C378.918 136.153 395.413 114.422 402.214 88.492C409.015 62.5615 405.313 35.5299 391.789 12.3773C378.259 -10.7697 356.529 -27.2654 330.598 -34.0661C322.115 -36.2906 313.505 -37.3918 304.961 -37.3918L304.955 -37.3974Z" fill="#344EAD"/>
<path d="M184.638 384.878C175.303 384.878 165.907 383.677 156.638 381.242C128.311 373.81 104.577 355.793 89.8025 330.516C75.0277 305.233 70.9826 275.711 78.4143 247.39C85.846 219.063 103.863 195.33 129.141 180.555C181.329 150.054 248.607 167.706 279.103 219.894C293.877 245.177 297.923 274.698 290.491 303.025C283.059 331.351 265.047 355.085 239.764 369.859C222.754 379.798 203.829 384.883 184.638 384.883V384.878ZM184.289 174.85C167.102 174.85 149.693 179.26 133.817 188.54C110.67 202.07 94.1741 223.8 87.3732 249.731C80.5724 275.667 84.2744 302.693 97.7986 325.845C111.328 348.992 133.059 365.488 158.99 372.289C184.92 379.09 211.952 375.388 235.105 361.863C258.252 348.334 274.748 326.603 281.548 300.673C288.349 274.743 284.647 247.711 271.123 224.558C252.48 192.652 218.825 174.85 184.295 174.85H184.289Z" fill="#344EAD"/>
<path d="M184.6 362.345C177.179 362.345 169.72 361.387 162.355 359.456C139.849 353.552 120.991 339.236 109.254 319.149C85.0221 277.681 99.0443 224.232 140.513 200C181.977 175.768 235.432 189.79 259.664 231.259C271.4 251.346 274.615 274.803 268.711 297.308C262.807 319.813 248.491 338.672 228.404 350.409C214.891 358.305 199.851 362.345 184.6 362.345ZM184.323 195.473C170.666 195.473 156.838 198.976 144.221 206.352C125.827 217.099 112.723 234.369 107.317 254.971C101.911 275.578 104.855 297.054 115.601 315.442C126.347 333.835 143.618 346.939 164.219 352.345C184.827 357.752 206.303 354.808 224.691 344.062C243.085 333.315 256.188 316.045 261.595 295.443C267.001 274.836 264.057 253.36 253.311 234.972C238.497 209.623 211.759 195.473 184.323 195.473Z" fill="#344EAD"/>
<path d="M184.638 384.878C175.303 384.878 165.907 383.677 156.638 381.242C128.311 373.81 104.577 355.793 89.8025 330.516C75.0277 305.233 70.9826 275.711 78.4143 247.39C85.846 219.063 103.863 195.33 129.141 180.555C181.329 150.054 248.607 167.706 279.103 219.894C293.877 245.177 297.923 274.698 290.491 303.025C283.059 331.351 265.047 355.085 239.764 369.859C222.754 379.798 203.829 384.883 184.638 384.883V384.878ZM184.289 174.85C167.102 174.85 149.693 179.26 133.817 188.54C110.67 202.07 94.1741 223.8 87.3732 249.731C80.5724 275.667 84.2744 302.693 97.7986 325.845C111.328 348.992 133.059 365.488 158.99 372.289C184.92 379.09 211.952 375.388 235.105 361.863C258.252 348.334 274.748 326.603 281.548 300.673C288.349 274.743 284.647 247.711 271.123 224.558C252.48 192.652 218.825 174.85 184.295 174.85H184.289Z" fill="#344EAD"/>
<path d="M306.323 314.379C245.874 314.379 196.696 265.202 196.696 204.753C196.696 144.304 245.874 95.127 306.323 95.127C366.773 95.127 415.95 144.304 415.95 204.753C415.95 265.202 366.773 314.379 306.323 314.379ZM306.323 104.379C250.976 104.379 205.949 149.406 205.949 204.753C205.949 260.1 250.976 305.127 306.323 305.127C361.671 305.127 406.698 260.1 406.698 204.753C406.698 149.406 361.671 104.379 306.323 104.379Z" fill="#7FA1F8"/>
<path d="M306.322 291.858C258.295 291.858 219.217 252.785 219.217 204.753C219.217 156.722 258.29 117.649 306.322 117.649C354.354 117.649 393.427 156.722 393.427 204.753C393.427 252.785 354.354 291.858 306.322 291.858ZM306.322 125.003C262.346 125.003 226.571 160.778 226.571 204.753C226.571 248.729 262.346 284.503 306.322 284.503C350.298 284.503 386.072 248.729 386.072 204.753C386.072 160.778 350.298 125.003 306.322 125.003Z" fill="#7FA1F8"/>
<path d="M306.323 314.379C245.874 314.379 196.696 265.202 196.696 204.753C196.696 144.304 245.874 95.127 306.323 95.127C366.773 95.127 415.95 144.304 415.95 204.753C415.95 265.202 366.773 314.379 306.323 314.379ZM306.323 104.379C250.976 104.379 205.949 149.406 205.949 204.753C205.949 260.1 250.976 305.127 306.323 305.127C361.671 305.127 406.698 260.1 406.698 204.753C406.698 149.406 361.671 104.379 306.323 104.379Z" fill="#7FA1F8"/>
</g>
<mask id="mask4_3934_41804" style="mask-type:luminance" maskUnits="userSpaceOnUse" x="254" y="128" width="16" height="12">
<path d="M269.799 132.965C267.331 131.726 264.874 130.32 262.5 128.787L261.023 128.76C258.754 130.115 256.485 131.621 254.277 133.236L254.299 135.516C256.458 137.027 258.754 138.477 261.122 139.833L262.6 139.777C264.841 138.261 267.276 136.811 269.827 135.461L269.799 132.971V132.965Z" fill="white"/>
</mask>
<g mask="url(#mask4_3934_41804)">
<path d="M305.267 150.159C297.851 150.159 290.387 149.201 283.021 147.27C260.516 141.366 241.657 127.05 229.921 106.963C218.184 86.8765 214.969 63.4195 220.873 40.9144C226.777 18.4093 241.093 -0.449223 261.18 -12.186C281.267 -23.9227 304.724 -27.1378 327.23 -21.2334C349.735 -15.3291 368.593 -1.01365 380.33 19.0733C392.067 39.1603 395.282 62.6172 389.378 85.1223C383.473 107.627 369.158 126.486 349.071 138.223C335.558 146.119 320.517 150.159 305.267 150.159ZM304.99 -16.7678C291.028 -16.7678 277.261 -13.0714 264.888 -5.83894C226.921 16.3452 214.083 65.2844 236.268 103.256C247.014 121.65 264.284 134.753 284.886 140.159C305.488 145.566 326.969 142.622 345.358 131.876C363.752 121.129 376.855 103.859 382.262 83.2575C387.668 62.6504 384.724 41.1745 373.978 22.7863C363.231 4.39267 345.961 -8.71088 325.359 -14.1172C318.619 -15.8879 311.78 -16.7623 304.99 -16.7623V-16.7678Z" fill="#344EAD"/>
<path d="M305.305 172.692C295.969 172.692 286.573 171.491 277.305 169.056C248.978 161.624 225.244 143.607 210.469 118.33C179.968 66.1367 197.62 -1.13522 249.808 -31.6309C302.001 -62.1321 369.274 -44.4799 399.769 7.70747C414.544 32.9905 418.589 62.5122 411.158 90.8387C403.726 119.16 385.708 142.899 360.431 157.673C343.426 167.612 324.495 172.697 305.305 172.697V172.692ZM304.956 -37.3969C287.387 -37.3969 270.055 -32.7431 254.484 -23.6404C206.701 4.28217 190.543 65.8766 218.465 113.665C231.995 136.812 253.726 153.307 279.656 160.108C305.592 166.915 332.619 163.207 355.771 149.683C378.919 136.153 395.414 114.423 402.215 88.4924C409.016 62.562 405.314 35.5304 391.79 12.3778C378.26 -10.7692 356.53 -27.2649 330.599 -34.0657C322.116 -36.2902 313.506 -37.3913 304.962 -37.3913L304.956 -37.3969Z" fill="#344EAD"/>
<path d="M306.323 314.38C245.874 314.38 196.696 265.203 196.696 204.754C196.696 144.305 245.874 95.1274 306.323 95.1274C366.773 95.1274 415.95 144.305 415.95 204.754C415.95 265.203 366.773 314.38 306.323 314.38ZM306.323 104.38C250.976 104.38 205.949 149.406 205.949 204.754C205.949 260.101 250.976 305.127 306.323 305.127C361.671 305.127 406.698 260.101 406.698 204.754C406.698 149.406 361.671 104.38 306.323 104.38Z" fill="#7FA1F8"/>
<path d="M306.322 291.858C258.295 291.858 219.217 252.785 219.217 204.754C219.217 156.722 258.29 117.649 306.322 117.649C354.354 117.649 393.427 156.722 393.427 204.754C393.427 252.785 354.354 291.858 306.322 291.858ZM306.322 125.004C262.346 125.004 226.571 160.778 226.571 204.754C226.571 248.729 262.346 284.504 306.322 284.504C350.298 284.504 386.072 248.729 386.072 204.754C386.072 160.778 350.298 125.004 306.322 125.004Z" fill="#7FA1F8"/>
<path d="M306.323 314.38C245.874 314.38 196.696 265.203 196.696 204.754C196.696 144.305 245.874 95.1274 306.323 95.1274C366.773 95.1274 415.95 144.305 415.95 204.754C415.95 265.203 366.773 314.38 306.323 314.38ZM306.323 104.38C250.976 104.38 205.949 149.406 205.949 204.754C205.949 260.101 250.976 305.127 306.323 305.127C361.671 305.127 406.698 260.101 406.698 204.754C406.698 149.406 361.671 104.38 306.323 104.38Z" fill="#7FA1F8"/>
</g>
<mask id="mask5_3934_41804" style="mask-type:luminance" maskUnits="userSpaceOnUse" x="221" y="126" width="15" height="17">
<path d="M235.662 133.546C233.52 131.433 231.44 129.169 229.47 126.829L227.4 126.746C225.187 128.987 223.045 131.338 221.042 133.746L221.053 135.555C223.073 137.907 225.248 140.231 227.516 142.45L229.58 142.334C231.467 140.015 233.52 137.724 235.673 135.527L235.656 133.552L235.662 133.546Z" fill="white"/>
</mask>
<g mask="url(#mask5_3934_41804)">
<path d="M305.266 150.158C297.85 150.158 290.386 149.201 283.02 147.27C260.515 141.365 241.656 127.05 229.92 106.963C218.183 86.876 214.968 63.4191 220.872 40.9139C226.776 18.4088 241.092 -0.449711 261.179 -12.1865C281.266 -23.9232 304.723 -27.1382 327.229 -21.2339C349.734 -15.3295 368.592 -1.01413 380.329 19.0728C392.066 39.1598 395.281 62.6167 389.377 85.1218C383.472 107.627 369.157 126.485 349.07 138.222C335.557 146.119 320.516 150.158 305.266 150.158ZM304.989 -16.7683C291.028 -16.7683 277.26 -13.0718 264.887 -5.83943C226.92 16.3448 214.082 65.2839 236.267 103.255C247.013 121.649 264.283 134.753 284.885 140.159C305.487 145.565 326.968 142.621 345.357 131.875C363.751 121.129 376.854 103.859 382.261 83.257C387.667 62.6499 384.723 41.174 373.977 22.7859C363.23 4.39218 345.96 -8.71136 325.358 -14.1177C318.618 -15.8884 311.779 -16.7628 304.989 -16.7628V-16.7683Z" fill="#344EAD"/>
<path d="M305.304 172.691C295.969 172.691 286.572 171.49 277.304 169.056C248.977 161.624 225.243 143.607 210.468 118.329C179.967 66.1362 197.619 -1.13571 249.807 -31.6314C302 -62.1325 369.273 -44.4804 399.768 7.70698C414.543 32.99 418.588 62.5117 411.157 90.8382C403.725 119.159 385.707 142.898 360.43 157.673C343.425 167.611 324.494 172.697 305.304 172.697V172.691ZM304.955 -37.3974C287.386 -37.3974 270.054 -32.7436 254.483 -23.6408C206.7 4.28168 190.542 65.8762 218.464 113.664C231.994 136.811 253.725 153.307 279.655 160.108C305.591 166.914 332.618 163.207 355.77 149.682C378.918 136.153 395.413 114.422 402.214 88.492C409.015 62.5615 405.313 35.5299 391.789 12.3773C378.259 -10.7697 356.529 -27.2654 330.598 -34.0661C322.115 -36.2906 313.505 -37.3918 304.961 -37.3918L304.955 -37.3974Z" fill="#344EAD"/>
<path d="M306.323 314.38C245.874 314.38 196.696 265.203 196.696 204.754C196.696 144.305 245.874 95.1274 306.323 95.1274C366.773 95.1274 415.95 144.305 415.95 204.754C415.95 265.203 366.773 314.38 306.323 314.38ZM306.323 104.38C250.976 104.38 205.949 149.406 205.949 204.754C205.949 260.101 250.976 305.127 306.323 305.127C361.671 305.127 406.698 260.101 406.698 204.754C406.698 149.406 361.671 104.38 306.323 104.38Z" fill="#7FA1F8"/>
<path d="M306.322 291.858C258.295 291.858 219.217 252.785 219.217 204.754C219.217 156.722 258.29 117.649 306.322 117.649C354.354 117.649 393.427 156.722 393.427 204.754C393.427 252.785 354.354 291.858 306.322 291.858ZM306.322 125.004C262.346 125.004 226.571 160.778 226.571 204.754C226.571 248.729 262.346 284.504 306.322 284.504C350.298 284.504 386.072 248.729 386.072 204.754C386.072 160.778 350.298 125.004 306.322 125.004Z" fill="#7FA1F8"/>
<path d="M306.323 314.38C245.874 314.38 196.696 265.203 196.696 204.754C196.696 144.305 245.874 95.1274 306.323 95.1274C366.773 95.1274 415.95 144.305 415.95 204.754C415.95 265.203 366.773 314.38 306.323 314.38ZM306.323 104.38C250.976 104.38 205.949 149.406 205.949 204.754C205.949 260.101 250.976 305.127 306.323 305.127C361.671 305.127 406.698 260.101 406.698 204.754C406.698 149.406 361.671 104.38 306.323 104.38Z" fill="#7FA1F8"/>
</g>
<mask id="mask6_3934_41804" style="mask-type:luminance" maskUnits="userSpaceOnUse" x="219" y="82" width="14" height="15">
<path d="M229.455 83.2959L227.485 82.3994C225.371 83.4397 223.168 84.4137 220.75 85.382L219.926 87.0642C220.795 90.1299 221.818 93.1235 222.969 95.9678L224.784 96.748C227.319 95.7409 229.56 94.7725 231.635 93.782L232.332 92.0002C231.237 89.2445 230.268 86.3172 229.455 83.2903V83.2959Z" fill="white"/>
</mask>
<g mask="url(#mask6_3934_41804)">
<path d="M305.266 150.157C297.85 150.157 290.386 149.199 283.02 147.268C260.515 141.364 241.656 127.048 229.92 106.961C218.183 86.8745 214.968 63.4176 220.872 40.9125C226.776 18.4073 241.092 -0.451176 261.179 -12.1879C281.266 -23.9247 304.723 -27.1397 327.229 -21.2354C349.734 -15.331 368.592 -1.0156 380.329 19.0714C392.066 39.1583 395.281 62.6152 389.377 85.1204C383.472 107.626 369.157 126.484 349.07 138.221C335.557 146.117 320.516 150.157 305.266 150.157ZM304.989 -16.7697C291.028 -16.7697 277.26 -13.0733 264.887 -5.8409C226.92 16.3433 214.082 65.2824 236.267 103.254C247.013 121.648 264.283 134.751 284.885 140.158C305.487 145.564 326.968 142.62 345.357 131.874C363.751 121.127 376.854 103.857 382.261 83.2555C387.667 62.6484 384.723 41.1725 373.977 22.7844C363.23 4.39072 345.96 -8.71283 325.358 -14.1192C318.618 -15.8899 311.779 -16.7642 304.989 -16.7642V-16.7697Z" fill="#344EAD"/>
<path d="M305.304 172.69C295.969 172.69 286.572 171.489 277.304 169.054C248.977 161.623 225.243 143.605 210.468 118.328C179.967 66.1348 197.619 -1.13717 249.807 -31.6328C302 -62.134 369.273 -44.4818 399.768 7.70551C414.543 32.9885 418.588 62.5103 411.157 90.8367C403.725 119.158 385.707 142.897 360.43 157.672C343.425 167.61 324.494 172.695 305.304 172.695V172.69ZM304.955 -37.3988C287.386 -37.3988 270.054 -32.7451 254.483 -23.6423C206.7 4.28022 190.542 65.8747 218.464 113.663C231.994 136.81 253.725 153.306 279.655 160.106C305.591 166.913 332.618 163.205 355.77 149.681C378.918 136.151 395.413 114.421 402.214 88.4905C409.015 62.5601 405.313 35.5284 391.789 12.3759C378.259 -10.7712 356.529 -27.2668 330.598 -34.0676C322.115 -36.2921 313.505 -37.3933 304.961 -37.3933L304.955 -37.3988Z" fill="#344EAD"/>
<path d="M184.007 103.144C123.557 103.144 74.3799 53.9669 74.3799 -6.48215C74.3799 -66.9312 123.557 -116.114 184.007 -116.114C244.456 -116.114 293.634 -66.9367 293.634 -6.48768C293.634 53.9613 244.456 103.138 184.007 103.138V103.144ZM184.007 -106.862C128.659 -106.862 83.6321 -61.8347 83.6321 -6.48768C83.6321 48.8594 128.659 93.8862 184.007 93.8862C239.354 93.8862 284.381 48.8594 284.381 -6.48768C284.381 -61.8347 239.349 -106.862 184.007 -106.862Z" fill="#7FA1F8"/>
<path d="M306.323 314.378C245.874 314.378 196.696 265.201 196.696 204.752C196.696 144.303 245.874 95.126 306.323 95.126C366.773 95.126 415.95 144.303 415.95 204.752C415.95 265.201 366.773 314.378 306.323 314.378ZM306.323 104.378C250.976 104.378 205.949 149.405 205.949 204.752C205.949 260.099 250.976 305.126 306.323 305.126C361.671 305.126 406.698 260.099 406.698 204.752C406.698 149.405 361.671 104.378 306.323 104.378Z" fill="#7FA1F8"/>
<path d="M306.323 314.378C245.874 314.378 196.696 265.201 196.696 204.752C196.696 144.303 245.874 95.126 306.323 95.126C366.773 95.126 415.95 144.303 415.95 204.752C415.95 265.201 366.773 314.378 306.323 314.378ZM306.323 104.378C250.976 104.378 205.949 149.405 205.949 204.752C205.949 260.099 250.976 305.126 306.323 305.126C361.671 305.126 406.698 260.099 406.698 204.752C406.698 149.405 361.671 104.378 306.323 104.378Z" fill="#7FA1F8"/>
</g>
<mask id="mask7_3934_41804" style="mask-type:luminance" maskUnits="userSpaceOnUse" x="194" y="69" width="14" height="13">
<path d="M206.44 70.3248L204.674 69.0742C201.653 69.8987 198.637 70.5461 195.704 70.9833L194.515 72.4884C194.708 74.7738 195.002 77.1865 195.411 79.8813L196.999 81.0545C200.142 80.5896 203.247 79.9643 206.224 79.1896L207.259 77.6292C206.877 75.056 206.611 72.6655 206.44 70.3248Z" fill="white"/>
</mask>
<g mask="url(#mask7_3934_41804)">
<path d="M305.305 172.691C295.969 172.691 286.573 171.49 277.305 169.056C248.978 161.624 225.244 143.607 210.469 118.329C179.968 66.1362 197.62 -1.13571 249.808 -31.6314C302.001 -62.1325 369.274 -44.4804 399.769 7.70698C414.544 32.99 418.589 62.5117 411.158 90.8382C403.726 119.159 385.708 142.898 360.431 157.673C343.426 167.611 324.495 172.697 305.305 172.697V172.691ZM304.956 -37.3974C287.387 -37.3974 270.055 -32.7436 254.484 -23.6408C206.701 4.28168 190.543 65.8762 218.465 113.664C231.995 136.811 253.726 153.307 279.656 160.108C305.592 166.914 332.619 163.207 355.771 149.682C378.919 136.153 395.414 114.422 402.215 88.492C409.016 62.5615 405.314 35.5299 391.79 12.3773C378.26 -10.7697 356.53 -27.2654 330.599 -34.0661C322.116 -36.2906 313.506 -37.3918 304.962 -37.3918L304.956 -37.3974Z" fill="#344EAD"/>
<path d="M184.006 80.6182C135.98 80.6182 96.9014 41.5455 96.9014 -6.48613C96.9014 -54.5178 135.974 -93.585 184.006 -93.585C232.038 -93.585 271.111 -54.5122 271.111 -6.48059C271.111 41.551 232.038 80.6238 184.006 80.6238V80.6182ZM184.006 -86.2363C140.031 -86.2363 104.256 -50.4616 104.256 -6.48613C104.256 37.4894 140.031 73.2641 184.006 73.2641C227.982 73.2641 263.757 37.4894 263.757 -6.48613C263.757 -50.4616 227.977 -86.2363 184.006 -86.2363Z" fill="#7FA1F8"/>
<path d="M184.006 103.145C123.556 103.145 74.3789 53.9683 74.3789 -6.48068C74.3789 -66.9297 123.556 -116.112 184.006 -116.112C244.455 -116.112 293.633 -66.9352 293.633 -6.48621C293.633 53.9628 244.455 103.14 184.006 103.14V103.145ZM184.006 -106.86C128.658 -106.86 83.6311 -61.8333 83.6311 -6.48621C83.6311 48.8608 128.658 93.8877 184.006 93.8877C239.353 93.8877 284.38 48.8608 284.38 -6.48621C284.38 -61.8333 239.348 -106.86 184.006 -106.86Z" fill="#7FA1F8"/>
</g>
<mask id="mask8_3934_41804" style="mask-type:luminance" maskUnits="userSpaceOnUse" x="139" y="59" width="11" height="15">
<path d="M148.789 63.469C146.294 62.2074 143.837 60.7963 141.49 59.269L139.327 60.503C139.449 63.303 139.415 66.1307 139.238 68.9086L139.936 70.2145C142.271 71.5647 144.689 72.8153 147.118 73.9331L149.099 72.8042C149.381 70.0429 149.536 67.326 149.564 64.7362L148.795 63.469H148.789Z" fill="white"/>
</mask>
<g mask="url(#mask8_3934_41804)">
<path d="M61.2092 173.666C51.874 173.666 42.4779 172.465 33.209 170.03C4.88236 162.598 -18.8514 144.587 -33.6262 119.304C-48.401 94.0206 -52.4461 64.4988 -45.0144 36.1724C-37.5827 7.84588 -19.5708 -15.8877 5.7124 -30.6624C30.9956 -45.4371 60.5175 -49.4822 88.8442 -42.0506C117.171 -34.619 140.905 -16.6071 155.679 8.67591C170.454 33.9589 174.499 63.4807 167.068 91.8071C159.636 120.128 141.618 143.867 116.341 158.642C99.336 168.58 80.4054 173.666 61.2148 173.666H61.2092ZM60.8551 -36.4284C43.2802 -36.4284 25.9544 -31.7747 10.3773 -22.6719C-12.7699 -9.14227 -29.2657 12.5882 -36.0665 38.5186C-42.8674 64.449 -39.1654 91.4807 -25.6412 114.633C-12.1114 137.78 9.61915 154.276 35.5498 161.077C61.4859 167.878 88.5122 164.176 111.665 150.651C134.812 137.122 151.308 115.391 158.109 89.4609C164.91 63.5305 161.208 36.4988 147.683 13.3463C134.154 -9.80077 112.423 -26.2964 86.4924 -33.0972C78.0038 -35.3217 69.399 -36.4229 60.8551 -36.4229V-36.4284Z" fill="#344EAD"/>
<path d="M61.1715 151.077C31.2013 151.077 2.00031 135.628 -14.18 107.938C-25.9169 87.8506 -29.1319 64.3937 -23.2275 41.8885C-17.3231 19.3834 -3.00763 0.524908 17.0795 -11.2119C37.1666 -22.9486 60.6236 -26.1636 83.1289 -20.2593C105.634 -14.3549 124.493 -0.0395222 136.23 20.0474C147.967 40.1344 151.182 63.5913 145.277 86.0965C139.373 108.602 125.057 127.46 104.97 139.197C91.1914 147.248 76.0846 151.077 61.1715 151.077ZM60.8948 -15.7937C46.9334 -15.7937 33.1657 -12.0972 20.7925 -4.86482C2.39873 5.88142 -10.7049 23.1518 -16.1113 43.7534C-21.5176 64.3605 -18.5737 85.8364 -7.82742 104.225C14.3569 142.191 63.2964 155.028 101.268 132.844C119.662 122.098 132.766 104.828 138.172 84.2261C143.578 63.619 140.634 42.1431 129.888 23.7549C119.142 5.36127 101.871 -7.74229 81.2696 -13.1486C74.5297 -14.9194 67.6901 -15.7937 60.9003 -15.7937H60.8948Z" fill="#344EAD"/>
<path d="M184.006 80.6182C135.98 80.6182 96.9014 41.5455 96.9014 -6.48613C96.9014 -54.5178 135.974 -93.585 184.006 -93.585C232.038 -93.585 271.111 -54.5122 271.111 -6.48059C271.111 41.551 232.038 80.6238 184.006 80.6238V80.6182ZM184.006 -86.2363C140.031 -86.2363 104.256 -50.4616 104.256 -6.48613C104.256 37.4894 140.031 73.2641 184.006 73.2641C227.982 73.2641 263.757 37.4894 263.757 -6.48613C263.757 -50.4616 227.977 -86.2363 184.006 -86.2363Z" fill="#7FA1F8"/>
<path d="M184.007 103.145C123.557 103.145 74.3799 53.9683 74.3799 -6.48068C74.3799 -66.9297 123.557 -116.112 184.007 -116.112C244.456 -116.112 293.634 -66.9352 293.634 -6.48621C293.634 53.9628 244.456 103.14 184.007 103.14V103.145ZM184.007 -106.86C128.659 -106.86 83.6321 -61.8333 83.6321 -6.48621C83.6321 48.8608 128.659 93.8877 184.007 93.8877C239.354 93.8877 284.381 48.8608 284.381 -6.48621C284.381 -61.8333 239.349 -106.86 184.007 -106.86Z" fill="#7FA1F8"/>
</g>
<mask id="mask9_3934_41804" style="mask-type:luminance" maskUnits="userSpaceOnUse" x="153" y="89" width="16" height="14">
<path d="M167.135 91.0201C164.086 90.4944 161.081 89.8304 158.209 89.0557L156.493 90.0406C155.669 93.0675 154.734 95.9948 153.71 98.7339L154.651 100.571C157.628 101.39 160.721 102.093 163.848 102.674L165.419 101.772C166.493 98.7893 167.444 95.7569 168.247 92.7632L167.135 91.0201Z" fill="white"/>
</mask>
<g mask="url(#mask9_3934_41804)">
<path d="M61.2092 173.665C51.874 173.665 42.4779 172.464 33.209 170.03C4.88236 162.598 -18.8514 144.586 -33.6262 119.303C-48.401 94.0201 -52.4461 64.4984 -45.0144 36.1719C-37.5827 7.84539 -19.5708 -15.8882 5.7124 -30.6629C30.9956 -45.4376 60.5175 -49.4827 88.8442 -42.0511C117.171 -34.6194 140.905 -16.6076 155.679 8.67543C170.454 33.9584 174.499 63.4802 167.068 91.8067C159.636 120.128 141.618 143.867 116.341 158.641C99.336 168.58 80.4054 173.665 61.2148 173.665H61.2092ZM60.8551 -36.4289C43.2802 -36.4289 25.9544 -31.7752 10.3773 -22.6724C-12.7699 -9.14275 -29.2657 12.5877 -36.0665 38.5181C-42.8674 64.4486 -39.1654 91.4802 -25.6412 114.633C-12.1114 137.78 9.61915 154.275 35.5498 161.076C61.4859 167.877 88.5122 164.175 111.665 150.651C134.812 137.121 151.308 115.391 158.109 89.4604C164.91 63.53 161.208 36.4984 147.683 13.3458C134.154 -9.80125 112.423 -26.2969 86.4924 -33.0977C78.0038 -35.3222 69.399 -36.4234 60.8551 -36.4234V-36.4289Z" fill="#344EAD"/>
<path d="M184.007 103.145C123.557 103.145 74.3799 53.9683 74.3799 -6.48068C74.3799 -66.9297 123.557 -116.112 184.007 -116.112C244.456 -116.112 293.634 -66.9352 293.634 -6.48621C293.634 53.9628 244.456 103.14 184.007 103.14V103.145ZM184.007 -106.86C128.659 -106.86 83.6321 -61.8333 83.6321 -6.48621C83.6321 48.8608 128.659 93.8877 184.007 93.8877C239.354 93.8877 284.381 48.8608 284.381 -6.48621C284.381 -61.8333 239.349 -106.86 184.007 -106.86Z" fill="#7FA1F8"/>
<path d="M61.6854 314.379C1.23601 314.379 -47.9414 265.202 -47.9414 204.753C-47.9414 144.304 1.23601 95.127 61.6854 95.127C122.135 95.127 171.312 144.304 171.312 204.753C171.312 265.202 122.135 314.379 61.6854 314.379ZM61.6854 104.379C6.33802 104.379 -38.6892 149.406 -38.6892 204.753C-38.6892 260.1 6.33802 305.127 61.6854 305.127C117.033 305.127 162.06 260.1 162.06 204.753C162.06 149.406 117.033 104.379 61.6854 104.379Z" fill="#7FA1F8"/>
</g>
<mask id="mask10_3934_41804" style="mask-type:luminance" maskUnits="userSpaceOnUse" x="115" y="112" width="16" height="15">
<path d="M129.942 117.283C127.767 115.579 125.803 114.134 123.933 112.867L122.057 113.149C120.059 115.628 117.984 117.919 115.887 119.967L116.091 122.136C118.084 123.453 120.092 124.892 122.057 126.408L123.905 126.286C126.096 124.084 128.205 121.715 130.169 119.259L129.937 117.283H129.942Z" fill="white"/>
</mask>
<g mask="url(#mask10_3934_41804)">
<path d="M61.2102 173.665C51.875 173.665 42.4788 172.464 33.21 170.03C4.88334 162.598 -18.8504 144.586 -33.6252 119.303C-48.4 94.0201 -52.4451 64.4984 -45.0134 36.1719C-37.5818 7.84539 -19.5698 -15.8882 5.71338 -30.6629C30.9966 -45.4376 60.5185 -49.4827 88.8452 -42.0511C117.172 -34.6194 140.906 -16.6076 155.68 8.67543C170.455 33.9584 174.5 63.4802 167.069 91.8067C159.637 120.128 141.619 143.867 116.342 158.641C99.3369 168.58 80.4064 173.665 61.2157 173.665H61.2102ZM60.856 -36.4289C43.2812 -36.4289 25.9554 -31.7752 10.3782 -22.6724C-12.769 -9.14275 -29.2647 12.5877 -36.0656 38.5181C-42.8664 64.4486 -39.1644 91.4802 -25.6402 114.633C-12.1105 137.78 9.62013 154.275 35.5507 161.076C61.4869 167.877 88.5131 164.175 111.666 150.651C134.813 137.121 151.309 115.391 158.11 89.4604C164.91 63.53 161.208 36.4984 147.684 13.3458C134.155 -9.80125 112.424 -26.2969 86.4934 -33.0977C78.0048 -35.3222 69.4 -36.4234 60.856 -36.4234V-36.4289Z" fill="#344EAD"/>
<path d="M61.1724 151.077C31.2023 151.077 2.00129 135.627 -14.1791 107.937C-25.9159 87.8501 -29.1309 64.3932 -23.2265 41.8881C-17.3222 19.3829 -3.00665 0.52442 17.0804 -11.2123C37.1675 -22.9491 60.6246 -26.1641 83.1299 -20.2598C105.635 -14.3554 124.494 -0.0400105 136.231 20.0469C147.967 40.1339 151.183 63.5908 145.278 86.096C139.374 108.601 125.058 127.46 104.971 139.196C91.1924 147.248 76.0856 151.077 61.1724 151.077ZM60.8958 -15.7942C46.9344 -15.7942 33.1667 -12.0977 20.7935 -4.86531C2.39971 5.88093 -10.7039 23.1513 -16.1103 43.7529C-21.5167 64.36 -18.5728 85.8359 -7.82645 104.224C14.3579 142.19 63.2974 155.028 101.269 132.844C119.663 122.098 132.767 104.827 138.173 84.2256C143.579 63.6185 140.635 42.1426 129.889 23.7545C119.143 5.36078 101.872 -7.74277 81.2706 -13.1491C74.5306 -14.9198 67.6911 -15.7942 60.9013 -15.7942H60.8958Z" fill="#344EAD"/>
<path d="M61.6864 314.379C1.23699 314.379 -47.9404 265.202 -47.9404 204.753C-47.9404 144.304 1.23699 95.127 61.6864 95.127C122.136 95.127 171.313 144.304 171.313 204.753C171.313 265.202 122.136 314.379 61.6864 314.379ZM61.6864 104.379C6.339 104.379 -38.6882 149.406 -38.6882 204.753C-38.6882 260.1 6.339 305.127 61.6864 305.127C117.034 305.127 162.061 260.1 162.061 204.753C162.061 149.406 117.034 104.379 61.6864 104.379Z" fill="#7FA1F8"/>
<path d="M61.687 291.857C13.6606 291.857 -25.418 252.784 -25.418 204.753C-25.418 156.721 13.655 117.648 61.687 117.648C109.719 117.648 148.792 156.721 148.792 204.753C148.792 252.784 109.719 291.857 61.687 291.857ZM61.687 125.003C17.7112 125.003 -18.0638 160.777 -18.0638 204.753C-18.0638 248.728 17.7112 284.503 61.687 284.503C105.663 284.503 141.438 248.728 141.438 204.753C141.438 160.777 105.663 125.003 61.687 125.003Z" fill="#7FA1F8"/>
</g>
<mask id="mask11_3934_41804" style="mask-type:luminance" maskUnits="userSpaceOnUse" x="115" y="141" width="16" height="15">
<path d="M123.977 141.952L122.128 141.841C120.203 143.346 118.194 144.802 116.158 146.163L115.964 148.338C118.238 150.529 120.346 152.792 122.217 155.072L124.093 155.338C126.323 153.805 128.282 152.361 130.091 150.933L130.307 148.952C128.309 146.506 126.179 144.154 123.971 141.963L123.977 141.952Z" fill="white"/>
</mask>
<g mask="url(#mask11_3934_41804)">
<path d="M61.2102 173.665C51.875 173.665 42.4788 172.464 33.21 170.029C4.88334 162.597 -18.8504 144.586 -33.6252 119.303C-48.4 94.0196 -52.4451 64.4979 -45.0134 36.1714C-37.5818 7.84491 -19.5698 -15.8887 5.71338 -30.6634C30.9966 -45.4381 60.5185 -49.4832 88.8452 -42.0516C117.172 -34.6199 140.906 -16.6081 155.68 8.67494C170.455 33.9579 174.5 63.4797 167.069 91.8062C159.637 120.127 141.619 143.866 116.342 158.641C99.3369 168.579 80.4064 173.665 61.2157 173.665H61.2102ZM60.856 -36.4294C43.2812 -36.4294 25.9554 -31.7757 10.3782 -22.6729C-12.769 -9.14324 -29.2647 12.5872 -36.0656 38.5176C-42.8664 64.4481 -39.1644 91.4797 -25.6402 114.632C-12.1105 137.779 9.62013 154.275 35.5507 161.076C61.4869 167.877 88.5131 164.175 111.666 150.65C134.813 137.121 151.309 115.39 158.11 89.4599C164.91 63.5295 161.208 36.4979 147.684 13.3453C134.155 -9.80174 112.424 -26.2974 86.4934 -33.0982C78.0048 -35.3227 69.4 -36.4239 60.856 -36.4239V-36.4294Z" fill="#344EAD"/>
<path d="M61.1715 151.077C31.2013 151.077 2.00031 135.627 -14.18 107.937C-25.9169 87.8496 -29.1319 64.3927 -23.2275 41.8876C-17.3231 19.3824 -3.00763 0.523932 17.0795 -11.2128C37.1666 -22.9496 60.6236 -26.1646 83.1289 -20.2603C105.634 -14.3559 124.493 -0.0404987 136.23 20.0465C147.967 40.1334 151.182 63.5903 145.277 86.0955C139.373 108.601 125.057 127.459 104.97 139.196C91.1914 147.247 76.0846 151.077 61.1715 151.077ZM60.8948 -15.7947C46.9334 -15.7947 33.1657 -12.0982 20.7925 -4.8658C2.39873 5.88045 -10.7049 23.1508 -16.1113 43.7524C-21.5176 64.3595 -18.5737 85.8354 -7.82742 104.224C14.3569 142.19 63.2964 155.027 101.268 132.843C119.662 122.097 132.766 104.827 138.172 84.2251C143.578 63.618 140.634 42.1421 129.888 23.754C119.142 5.36029 101.871 -7.74326 81.2696 -13.1496C74.5297 -14.9203 67.6901 -15.7947 60.9003 -15.7947H60.8948Z" fill="#344EAD"/>
<path d="M184.638 384.877C175.303 384.877 165.907 383.676 156.638 381.241C128.311 373.81 104.577 355.792 89.8025 330.515C75.0277 305.232 70.9826 275.71 78.4143 247.389C85.846 219.062 103.863 195.329 129.141 180.554C181.329 150.053 248.607 167.705 279.103 219.893C293.877 245.176 297.923 274.697 290.491 303.024C283.059 331.35 265.047 355.084 239.764 369.859C222.754 379.797 203.829 384.882 184.638 384.882V384.877ZM184.289 174.849C167.102 174.849 149.693 179.259 133.817 188.539C110.67 202.069 94.1741 223.799 87.3732 249.73C80.5724 275.666 84.2744 302.692 97.7986 325.844C111.328 348.991 133.059 365.487 158.99 372.288C184.92 379.089 211.952 375.387 235.105 361.863C258.252 348.333 274.748 326.602 281.548 300.672C288.349 274.742 284.647 247.71 271.123 224.557C252.48 192.651 218.825 174.849 184.295 174.849H184.289Z" fill="#344EAD"/>
<path d="M184.638 384.877C175.303 384.877 165.907 383.676 156.638 381.241C128.311 373.81 104.577 355.792 89.8025 330.515C75.0277 305.232 70.9826 275.71 78.4143 247.389C85.846 219.062 103.863 195.329 129.141 180.554C181.329 150.053 248.607 167.705 279.103 219.893C293.877 245.176 297.923 274.697 290.491 303.024C283.059 331.35 265.047 355.084 239.764 369.859C222.754 379.797 203.829 384.882 184.638 384.882V384.877ZM184.289 174.849C167.102 174.849 149.693 179.259 133.817 188.539C110.67 202.069 94.1741 223.799 87.3732 249.73C80.5724 275.666 84.2744 302.692 97.7986 325.844C111.328 348.991 133.059 365.487 158.99 372.288C184.92 379.089 211.952 375.387 235.105 361.863C258.252 348.333 274.748 326.602 281.548 300.672C288.349 274.742 284.647 247.71 271.123 224.557C252.48 192.651 218.825 174.849 184.295 174.849H184.289Z" fill="#344EAD"/>
<path d="M61.6864 314.379C1.23699 314.379 -47.9404 265.202 -47.9404 204.753C-47.9404 144.304 1.23699 95.127 61.6864 95.127C122.136 95.127 171.313 144.304 171.313 204.753C171.313 265.202 122.136 314.379 61.6864 314.379ZM61.6864 104.379C6.339 104.379 -38.6882 149.406 -38.6882 204.753C-38.6882 260.1 6.339 305.127 61.6864 305.127C117.034 305.127 162.061 260.1 162.061 204.753C162.061 149.406 117.034 104.379 61.6864 104.379Z" fill="#7FA1F8"/>
<path d="M61.687 291.858C13.6606 291.858 -25.418 252.785 -25.418 204.753C-25.418 156.722 13.655 117.649 61.687 117.649C109.719 117.649 148.792 156.722 148.792 204.753C148.792 252.785 109.719 291.858 61.687 291.858ZM61.687 125.003C17.7112 125.003 -18.0638 160.778 -18.0638 204.753C-18.0638 248.729 17.7112 284.503 61.687 284.503C105.663 284.503 141.438 248.729 141.438 204.753C141.438 160.778 105.663 125.003 61.687 125.003Z" fill="#7FA1F8"/>
</g>
<mask id="mask12_3934_41804" style="mask-type:luminance" maskUnits="userSpaceOnUse" x="139" y="194" width="12" height="16">
<path d="M149.735 195.794L147.759 194.659C145.413 195.733 142.989 196.978 140.554 198.372L139.852 199.678C139.973 201.609 140.034 203.22 140.034 204.752C140.034 205.859 139.995 206.96 139.951 208.062L142.104 209.301C143.033 208.709 143.963 208.122 144.92 207.564C146.337 206.733 147.842 205.92 149.392 205.145L150.166 203.878C150.139 201.067 149.995 198.35 149.735 195.799V195.794Z" fill="white"/>
</mask>
<g mask="url(#mask12_3934_41804)">
<path d="M184.638 384.877C175.303 384.877 165.907 383.676 156.638 381.242C128.311 373.81 104.577 355.793 89.8025 330.515C75.0277 305.232 70.9826 275.71 78.4143 247.389C85.846 219.063 103.863 195.329 129.141 180.555C181.329 150.053 248.607 167.706 279.103 219.893C293.877 245.176 297.923 274.698 290.491 303.024C283.059 331.351 265.047 355.084 239.764 369.859C222.754 379.797 203.829 384.883 184.638 384.883V384.877ZM184.289 174.85C167.102 174.85 149.693 179.26 133.817 188.54C110.67 202.069 94.1741 223.8 87.3732 249.73C80.5724 275.666 84.2744 302.692 97.7986 325.845C111.328 348.992 133.059 365.487 158.99 372.288C184.92 379.089 211.952 375.387 235.105 361.863C258.252 348.333 274.748 326.603 281.548 300.672C288.349 274.742 284.647 247.71 271.123 224.558C252.48 192.651 218.825 174.85 184.295 174.85H184.289Z" fill="#344EAD"/>
<path d="M184.599 362.345C177.178 362.345 169.719 361.387 162.354 359.456C139.848 353.552 120.99 339.236 109.253 319.149C85.0211 277.681 99.0433 224.232 140.512 200C181.976 175.768 235.431 189.79 259.663 231.259C271.399 251.346 274.614 274.803 268.71 297.308C262.806 319.813 248.49 338.672 228.403 350.409C214.89 358.305 199.85 362.345 184.599 362.345ZM184.322 195.473C170.665 195.473 156.837 198.976 144.22 206.352C125.826 217.099 112.722 234.369 107.316 254.971C101.91 275.578 104.854 297.054 115.6 315.442C126.346 333.835 143.617 346.939 164.218 352.345C184.826 357.752 206.302 354.808 224.69 344.062C243.084 333.315 256.187 316.045 261.594 295.443C267 274.836 264.056 253.36 253.31 234.972C238.496 209.623 211.758 195.473 184.322 195.473Z" fill="#344EAD"/>
<path d="M184.638 384.877C175.303 384.877 165.907 383.676 156.638 381.242C128.311 373.81 104.577 355.793 89.8025 330.515C75.0277 305.232 70.9826 275.71 78.4143 247.389C85.846 219.063 103.863 195.329 129.141 180.555C181.329 150.053 248.607 167.706 279.103 219.893C293.877 245.176 297.923 274.698 290.491 303.024C283.059 331.351 265.047 355.084 239.764 369.859C222.754 379.797 203.829 384.883 184.638 384.883V384.877ZM184.289 174.85C167.102 174.85 149.693 179.26 133.817 188.54C110.67 202.069 94.1741 223.8 87.3732 249.73C80.5724 275.666 84.2744 302.692 97.7986 325.845C111.328 348.992 133.059 365.487 158.99 372.288C184.92 379.089 211.952 375.387 235.105 361.863C258.252 348.333 274.748 326.603 281.548 300.672C288.349 274.742 284.647 247.71 271.123 224.558C252.48 192.651 218.825 174.85 184.295 174.85H184.289Z" fill="#344EAD"/>
<path d="M61.6854 314.379C1.23601 314.379 -47.9414 265.202 -47.9414 204.753C-47.9414 144.304 1.23601 95.1265 61.6854 95.1265C122.135 95.1265 171.312 144.304 171.312 204.753C171.312 265.202 122.135 314.379 61.6854 314.379ZM61.6854 104.379C6.33802 104.379 -38.6892 149.406 -38.6892 204.753C-38.6892 260.1 6.33802 305.126 61.6854 305.126C117.033 305.126 162.06 260.1 162.06 204.753C162.06 149.406 117.033 104.379 61.6854 104.379Z" fill="#7FA1F8"/>
<path d="M61.686 291.857C13.6596 291.857 -25.4189 252.784 -25.4189 204.752C-25.4189 156.721 13.654 117.648 61.686 117.648C109.718 117.648 148.791 156.721 148.791 204.752C148.791 252.784 109.718 291.857 61.686 291.857ZM61.686 125.002C17.7102 125.002 -18.0647 160.777 -18.0647 204.752C-18.0647 248.728 17.7102 284.503 61.686 284.503C105.662 284.503 141.437 248.728 141.437 204.752C141.437 160.777 105.662 125.002 61.686 125.002Z" fill="#7FA1F8"/>
</g>
</g>
</g>
<defs>
<clipPath id="clip0_3934_41804">
<path d="M-23 6.79591C-23 3.4822 -20.3137 0.795898 -17 0.795898H385C388.314 0.795898 391 3.48219 391 6.7959V259.796C391 263.11 388.314 265.796 385 265.796H-17C-20.3137 265.796 -23 263.11 -23 259.796V6.79591Z" fill="white"/>
</clipPath>
</defs>
</svg>
