<svg xmlns="http://www.w3.org/2000/svg" width="24" height="24" viewBox="0 0 24 24">
    <path fill="#5A5A5A" fill-rule="evenodd" d="M12 2c.414 0 .75.336.75.75v9c0 .035-.016.066-.021.1 1.303.327 2.271 1.496 2.271 2.9s-.968 2.573-2.271 2.9c.005.034.021.065.021.1v3c0 .414-.336.75-.75.75s-.75-.336-.75-.75v-3c0-.035.016-.066.021-.1C9.968 17.323 9 16.154 9 14.75s.968-2.573 2.271-2.9c-.005-.034-.021-.065-.021-.1v-9c0-.414.336-.75.75-.75zM5 2c.414 0 .75.336.75.75v3c0 .035-.016.066-.021.1C7.032 6.177 8 7.346 8 8.75s-.968 2.573-2.271 2.9c.005.034.021.065.021.1v9c0 .414-.336.75-.75.75s-.75-.336-.75-.75v-9c0-.035.016-.066.021-.1C2.968 11.323 2 10.154 2 8.75s.968-2.573 2.271-2.9c-.005-.034-.021-.065-.021-.1v-3c0-.414.336-.75.75-.75zm14 0c.414 0 .75.336.75.75v3c0 .035-.016.066-.021.1C21.032 6.177 22 7.346 22 8.75s-.968 2.573-2.271 2.9c.005.034.021.065.021.1v9c0 .414-.336.75-.75.75s-.75-.336-.75-.75v-9c0-.035.016-.066.021-.1C16.968 11.323 16 10.154 16 8.75s.968-2.573 2.271-2.9c-.005-.034-.021-.065-.021-.1v-3c0-.414.336-.75.75-.75zm-7 11.25c-.827 0-1.5.673-1.5 1.5s.673 1.5 1.5 1.5 1.5-.673 1.5-1.5-.673-1.5-1.5-1.5zm-7-6c-.827 0-1.5.673-1.5 1.5s.673 1.5 1.5 1.5 1.5-.673 1.5-1.5-.673-1.5-1.5-1.5zm14 0c-.827 0-1.5.673-1.5 1.5s.673 1.5 1.5 1.5 1.5-.673 1.5-1.5-.673-1.5-1.5-1.5z"/>
</svg>
